<?xml version="1.0" encoding="utf-8"?>
<svg viewBox="0 0 500 500" xmlns="http://www.w3.org/2000/svg">
  <polygon style="stroke: rgb(0, 0, 0); fill: rgb(132, 153, 193);" points="171.12 137.645 240.622 176.164 283.027 179.686 359.372 131.386 309.798 206.048 348.645 288.702 324.888 265.317 341.17 299.296 316.651 274.229 326.904 305.42 283.973 277.172 268.428 330.893 256.799 328.121 244.77 329.519 236.918 274.082 198.16 289.135 205.027 273.614 185.019 283.953 201.622 267.057 177.577 275.314 199.329 257.721 165.962 265.886 217.11 198.953 217.705 198.322"/>
  <polygon style="stroke: rgb(0, 0, 0);" points="219.8 228.216 243.992 253.013 223.903 246.704 219.141 228.708 219.45 228.357 220.463 229.741"/>
  <polygon style="stroke: rgb(0, 0, 0);" points="278.569 252.936 294.393 250.4 304.903 226.789 275.6 252.121"/>
  <polygon style="stroke: rgb(0, 0, 0);" points="223.825 180.794 182.479 147.739 206.847 182.262 207.215 178.308 219.71 186.667 210.371 174.954 210.969 174.625 210.969 174.625 211.822 175.208"/>
  <polygon style="stroke: rgb(0, 0, 0);" points="296.971 185.164 358.616 132.722 358.312 132.942 283.898 180.148 284.948 179.264 284.948 179.264"/>
  <polygon style="stroke: rgb(0, 0, 0);" points="248.184 307.664 247.076 319.473 253.642 320.477 253.49 317.594 250.552 316.654 251.179 312.624 253.607 312.641 253.759 314.022 256.18 314.56 256.348 308.254" transform=""/>
  <polygon style="stroke: rgb(0, 0, 0);" points="261.743 313.708 260.244 319.85 262.488 319.613 262.631 316.759 265.011 316.686 265.354 314.105" transform=""/>
  <polygon style="stroke: rgb(0, 0, 0);" points="259.815 326.844 260.067 320.598 267.018 318.653 269.283 308.709 257.95 306.322 272.775 285.019 283.772 258.541 292.279 257.775 312.38 216.145 347.662 286.684 325.441 264.438 339.514 297.293 315.87 273.806 325.746 304.129 283.671 275.936 268.495 329.615 268.669 329.962"/>
  <polygon style="stroke: rgb(0, 0, 0); fill: rgba(0, 0, 0, 0);" points="341.319 254.51"/>
  <polygon style="stroke: rgb(0, 0, 0); fill: rgb(3, 255, 247);" points="226.422 235.78 224.901 245.602 239.611 251.254 241.138 249.526 241.035 249.008"/>
  <polygon style="stroke: rgb(0, 0, 0); fill: rgb(3, 255, 247);" points="280.73 248.513 280.326 252.261 293.656 247.468 295.7 237.024"/>
  <polygon style="stroke: rgb(0, 0, 0);" points="284.907 245.639 288.997 246.338 289.206 242.387 289.206 242.387 285.121 245.649 285.603 245.147"/>
  <polygon style="stroke: rgb(0, 0, 0);" points="231.149 241.247 231.149 245.422 236.252 244.906 233.68 243.008"/>
  <polygon style="stroke: rgb(0, 0, 0);" points="248.512 262.19 258.21 252.101 271.469 242.103 270.87 236.154 277.215 230.467 276.736 219.68 250.862 247.051 243.832 259.142" transform=""/>
  <polygon style="stroke: rgb(0, 0, 0);" points="242.2 249.223 245.776 244.03 245.853 243.894 289.762 191.091 286.31 188.083 242.462 240.479 238.479 237.824 280.742 184.756 278.211 182.846 246.708 222.501 238.536 224.587 227.456 235.162" transform=""/>
  <polygon style="stroke: rgb(0, 0, 0);" points="230.829 228.253 237.191 221.41 244.11 219.523 273.829 180.497 260.021 179.759 229.853 225.94"/>
  <polygon style="stroke: rgb(0, 0, 0);" points="282.015 226.898 288.982 218.489 294.536 219.51 308.185 205.483 306.222 196.461 311.915 188.466 307.502 186.916 279.932 224.347"/>
  <polygon style="stroke: rgb(0, 0, 0); fill: rgb(5, 5, 5);" points="279.565 246.124 284.439 239.092 285.851 231.485 289.923 228.566 310.02 208.523 301.164 223.324 290.532 232.508 290.76 236.968"/>
  <polygon style="stroke: rgb(0, 0, 0);" points="212.111 237.341 216.213 242.098 205.672 252.434 205.222 249.268 210.615 242.707 209.018 241.621"/>
  <polygon style="stroke: rgb(0, 0, 0);" points="221.45 252.286 215.214 259.279 219.23 262.54 225.004 256.835"/>
  <polygon style="stroke: rgb(0, 0, 0); fill: rgb(8, 8, 8);" points="216.733 246.196 210.395 252.211 212.796 256.326 219.387 248.749"/>
  <polygon style="stroke: rgb(0, 0, 0);" points="228.331 258.321 209.391 280.568 214.781 281.979 223.919 268.582 226.594 269.431 233.45 259.225"/>
  <polygon style="stroke: rgb(0, 0, 0);" points="239.773 257.948 225.293 275.463 230.656 274.231 241.12 260.443 241.161 260.445"/>
  <polygon style="stroke: rgb(0, 0, 0);" points="276.829 258.02 265.745 273.541 265.999 283.469 255.677 297.454 255.677 304.085 269.528 282.919 271.25 273.897 280.974 259.337 280.974 259.337"/>
  <polygon style="stroke: rgb(0, 0, 0);" points="251.55 179.932 223.69 218.598 226.462 225.263 242.818 198.121 255.299 180.284"/>
  <polygon style="stroke: rgb(0, 0, 0);" points="255.737 275.552 249.635 284.512 249.635 291.826 257.354 282.526"/>
  <polygon style="stroke: rgb(0, 0, 0);" points="260.993 275.689 260.993 281.085 250.614 293.986 252.672 296.396 263.655 282.233 262.464 274.553"/>
</svg>