<svg id="Layer_1" data-name="Layer 1" xmlns="http://www.w3.org/2000/svg" xmlns:xlink="http://www.w3.org/1999/xlink" viewBox="0 0 400.88 615.52"><defs><style>.cls-1{fill:url(#linear-gradient);}.cls-2{fill:url(#linear-gradient-2);}.cls-3{fill:url(#linear-gradient-3);}.cls-4{fill:url(#linear-gradient-4);}.cls-5{fill:url(#linear-gradient-5);}.cls-6{fill:none;stroke:#000;stroke-miterlimit:10;}.cls-7{fill:url(#linear-gradient-6);}.cls-8{fill:url(#radial-gradient);}.cls-26,.cls-9{fill:#fff;}.cls-10{fill:url(#radial-gradient-2);}.cls-11{fill:url(#linear-gradient-7);}.cls-12{fill:url(#linear-gradient-8);}.cls-13{fill:url(#linear-gradient-9);}.cls-14{fill:url(#radial-gradient-3);}.cls-15{fill:url(#linear-gradient-10);}.cls-16{fill:url(#linear-gradient-11);}.cls-17{fill:url(#linear-gradient-12);}.cls-18{fill:url(#radial-gradient-4);}.cls-19{fill:url(#radial-gradient-5);}.cls-20{fill:url(#linear-gradient-13);}.cls-21{fill:url(#linear-gradient-14);}.cls-22{fill:url(#linear-gradient-15);}.cls-23{fill:url(#linear-gradient-16);}.cls-24{fill:url(#linear-gradient-17);}.cls-25{fill:url(#linear-gradient-18);}.cls-26{opacity:0.1;}.cls-27{fill:#fd0;}.cls-28{fill:#fcb813;}.cls-29{fill:#ffca05;}.cls-30{fill:url(#linear-gradient-19);}.cls-31{fill:url(#linear-gradient-20);}.cls-32{opacity:0.15;}</style><linearGradient id="linear-gradient" x1="952.02" y1="541.74" x2="701.08" y2="451.39" gradientUnits="userSpaceOnUse"><stop offset="0" stop-color="#fff"/><stop offset="1" stop-color="#d3d3d3"/></linearGradient><linearGradient id="linear-gradient-2" x1="729.53" y1="329.68" x2="802.95" y2="355.57" gradientUnits="userSpaceOnUse"><stop offset="0" stop-color="#265278"/><stop offset="1" stop-color="#0b68b5"/></linearGradient><linearGradient id="linear-gradient-3" x1="768.83" y1="313.95" x2="782.95" y2="337.24" xlink:href="#linear-gradient"/><linearGradient id="linear-gradient-4" x1="1168.23" y1="306.52" x2="1091.52" y2="357.34" xlink:href="#linear-gradient-2"/><linearGradient id="linear-gradient-5" x1="1122.53" y1="297.58" x2="1107.7" y2="330.05" xlink:href="#linear-gradient"/><linearGradient id="linear-gradient-6" x1="890.58" y1="488.72" x2="772.7" y2="536.72" xlink:href="#linear-gradient"/><radialGradient id="radial-gradient" cx="862.1" cy="484.91" r="21.28" gradientUnits="userSpaceOnUse"><stop offset="0" stop-color="#2d2d2d"/><stop offset="1" stop-color="#141414"/></radialGradient><radialGradient id="radial-gradient-2" cx="862.1" cy="481.48" r="18.4" xlink:href="#radial-gradient"/><linearGradient id="linear-gradient-7" x1="861.98" y1="712.91" x2="903.63" y2="708.2" gradientUnits="userSpaceOnUse"><stop offset="0" stop-color="#04417c"/><stop offset="0.52" stop-color="#024f83"/><stop offset="1" stop-color="#053d7a"/></linearGradient><linearGradient id="linear-gradient-8" x1="895" y1="756.31" x2="831.47" y2="755.61" xlink:href="#linear-gradient-2"/><linearGradient id="linear-gradient-9" x1="883.98" y1="728.42" x2="905.86" y2="800.77" gradientUnits="userSpaceOnUse"><stop offset="0" stop-color="#4c4c4c"/><stop offset="1" stop-color="#2d2d2d"/></linearGradient><radialGradient id="radial-gradient-3" cx="945.24" cy="582.3" r="20.2" xlink:href="#radial-gradient"/><linearGradient id="linear-gradient-10" x1="932.41" y1="540.25" x2="1138.88" y2="471.42" xlink:href="#linear-gradient"/><linearGradient id="linear-gradient-11" x1="945.25" y1="562.56" x2="945.25" y2="431.27" xlink:href="#linear-gradient-2"/><linearGradient id="linear-gradient-12" x1="1001.31" y1="490.38" x2="1108.25" y2="532.38" xlink:href="#linear-gradient"/><radialGradient id="radial-gradient-4" cx="1028.38" cy="484.91" r="21.28" xlink:href="#radial-gradient"/><radialGradient id="radial-gradient-5" cx="1028.38" cy="481.48" r="18.4" xlink:href="#radial-gradient"/><linearGradient id="linear-gradient-13" x1="944.71" y1="697.58" x2="943.76" y2="570.99" xlink:href="#linear-gradient-2"/><linearGradient id="linear-gradient-14" x1="1029.65" y1="713.12" x2="984.24" y2="707.47" xlink:href="#linear-gradient-7"/><linearGradient id="linear-gradient-15" x1="945.95" y1="836.39" x2="944.89" y2="638.03" xlink:href="#linear-gradient-2"/><linearGradient id="linear-gradient-16" x1="1003.89" y1="753.16" x2="1066" y2="759.87" xlink:href="#linear-gradient-2"/><linearGradient id="linear-gradient-17" x1="998.64" y1="729.53" x2="981.34" y2="805.41" xlink:href="#linear-gradient-9"/><linearGradient id="linear-gradient-18" x1="944.68" y1="767.91" x2="945.39" y2="571.68" gradientUnits="userSpaceOnUse"><stop offset="0" stop-color="#1468bb"/><stop offset="1" stop-color="#0b72db"/></linearGradient><linearGradient id="linear-gradient-19" x1="855.52" y1="560.04" x2="868.23" y2="374.63" gradientUnits="userSpaceOnUse"><stop offset="0" stop-color="#0e5ae2"/><stop offset="1" stop-color="#0b68b5"/></linearGradient><linearGradient id="linear-gradient-20" x1="1027.25" y1="571.87" x2="1039.96" y2="386.46" xlink:href="#linear-gradient-19"/></defs><title>wolf</title><path class="cls-1" d="M945.24,568.32a16.42,16.42,0,0,0-7-2.64l-.58-.06c-2-.15-8.3-.25-12.3,4.11s-4.45,11.63-.85,17.89A317.8,317.8,0,0,0,877.22,568a209.79,209.79,0,0,0-23.14-6c-1.47-.3-3-.57-4.43-.82-13.79-2.33-24.24-4.09-38.82-3.53-18.49.73-33.15,4.8-34.24,1.77-1.23-3.44,16.79-11.06,15.53-15.18-1.76-5.78-39.44,2.37-40.94-2.82-1.26-4.36,24.32-13.59,22.94-19.41s-28.44-2.28-29.29-8.12c-1-7.05,26.46-13.75,25.76-23.65C770,481.63,748.1,477,749.06,473c.55-2.26,7.73-1.27,15.18-3.14a21.75,21.75,0,0,0,10.59-5.68,20.59,20.59,0,0,0,4.59-7.53l.74-.76.43-.43c.57-.57,1.22-1.2,1.95-1.87l.75-.69c1-.93,2.21-1.93,3.52-3,.33-.27.68-.54,1-.81s.87-.66,1.33-1,.84-.61,1.28-.92c.7-.48,1.42-1,2.17-1.46l1.14-.73,1.18-.72c.42-.26.86-.52,1.3-.77l1.18-.67,1.22-.66c.83-.43,1.68-.86,2.55-1.28l1.33-.62c.44-.21.9-.41,1.36-.6l1.33-.56.21-.08.64-.26.65-.25q1-.39,2.07-.75l1.3-.44.9-.28.23-.07c.37-.12.74-.23,1.12-.33l.67-.2.2-.05.35-.1,1-.26.23-.06,1.26-.3,1.43-.32,1.95-.38c30.35-5.5,53.22,10.59,57.41,13.65-12.57-14.72-15.37-19.45-14.59-20.24,1.09-1.1,9.9,4.86,17.06,12.12,15.91,16.15,19.94,34.91,22.23,34.23s-1.73-18.26,0-18.7c1.46-.38,6.31,11.51,9.89,23.64,4.36,14.82,5.18,24.43,6.7,24.36,2.32-.11,2.25-22.51,4.24-22.59,1.67-.07,3.62,15.71,5.29,28.23C929.59,524.3,934.06,544.44,945.24,568.32Z" transform="translate(-744.8 -232.24)"/><path class="cls-2" d="M780.83,277.15a94,94,0,0,0-22.24-2.47A274.7,274.7,0,0,0,775.28,417a11,11,0,0,1,9.17-4.73h5.18v-24.2c0-33.47,12.66-64.24,33.86-88.54A98.07,98.07,0,0,0,780.83,277.15Zm6.59,80.23A142.83,142.83,0,0,0,783,402.09a261.8,261.8,0,0,1-8.71-106.36l33.41,17.42A142.75,142.75,0,0,0,787.42,357.38Z" transform="translate(-744.8 -232.24)"/><path class="cls-3" d="M787.42,357.38A142.83,142.83,0,0,0,783,402.09a261.8,261.8,0,0,1-8.71-106.36l33.41,17.42A142.75,142.75,0,0,0,787.42,357.38Z" transform="translate(-744.8 -232.24)"/><path class="cls-4" d="M1066.93,299.55c21.2,24.3,33.86,55.07,33.86,88.54v24.2H1106a11,11,0,0,1,9.17,4.73,274.7,274.7,0,0,0,16.69-142.34,94,94,0,0,0-22.24,2.47A98.07,98.07,0,0,0,1066.93,299.55Zm15.84,13.6,33.41-17.42a261.8,261.8,0,0,1-8.71,106.36,142.71,142.71,0,0,0-24.7-88.94Z" transform="translate(-744.8 -232.24)"/><path class="cls-5" d="M1103,357.38a142.83,142.83,0,0,1,4.47,44.71,261.8,261.8,0,0,0,8.71-106.36l-33.41,17.42A142.75,142.75,0,0,1,1103,357.38Z" transform="translate(-744.8 -232.24)"/><path class="cls-6" d="M775.29,417s0,0,0,0" transform="translate(-744.8 -232.24)"/><path class="cls-7" d="M877.22,568a209.79,209.79,0,0,0-23.14-6c-1.47-.3-3-.57-4.43-.82-13.79-2.33-24.24-4.09-38.82-3.53-18.49.73-33.15,4.8-34.24,1.77-1.23-3.44,16.79-11.06,15.53-15.18-1.76-5.78-39.44,2.37-40.94-2.82-1.26-4.36,24.32-13.59,22.94-19.41s-28.44-2.28-29.29-8.12c-1-7.05,26.46-13.75,25.76-23.65C770,481.63,748.1,477,749.06,473c.55-2.26,7.73-1.27,15.18-3.14,9.83,5,17.79,10.94,17.53,17.37-.42,10.17-21.1,15.6-19.77,22.12,1.47,7.17,27.6,6,28.24,11.53.54,4.71-17.61,9.49-16.94,12.71.83,4,29.9-1,32,5.41,1.38,4.23-9.91,10.1-8.47,13.65,1.61,4,17.59,1,20.47.47C830.34,550.89,849.36,552.66,877.22,568Z" transform="translate(-744.8 -232.24)"/><path class="cls-8" d="M862.1,509c-8.06,0-15.21-7.19-17.39-17.48a30.83,30.83,0,0,1-.69-6.57c0-13.26,8.11-24.06,18.08-24.06s18.08,10.8,18.08,24.06a30.19,30.19,0,0,1-.31,4.4C878.3,500.7,870.82,509,862.1,509Z" transform="translate(-744.8 -232.24)"/><path class="cls-9" d="M879.18,484.91a29.67,29.67,0,0,1-.3,4.26C877.4,499.87,870.45,508,862.1,508c-7.79,0-14.37-7-16.41-16.69a29.88,29.88,0,0,1-.67-6.36c0-12.74,7.65-23.06,17.08-23.06S879.18,472.17,879.18,484.91Z" transform="translate(-744.8 -232.24)"/><path class="cls-10" d="M879.18,484.91a29.67,29.67,0,0,1-.3,4.26c-2.17,5.38-6.18,9.9-11.4,11.39-7,2-15.91-1.52-21.79-9.29a29.88,29.88,0,0,1-.67-6.36c0-12.74,7.65-23.06,17.08-23.06S879.18,472.17,879.18,484.91Z" transform="translate(-744.8 -232.24)"/><path class="cls-9" d="M853.75,470.32c.27-4,5-7,9-5.94,3.22.83,5.91,4.19,5.29,7.65-.69,3.9-5.26,6.08-8.94,5.12C856.12,476.37,853.53,473.48,853.75,470.32Z" transform="translate(-744.8 -232.24)"/><line class="cls-6" x1="109.28" y1="329.84" x2="109.28" y2="329.83"/><path class="cls-11" d="M910,740.69c-5,4.09-7.57,4.53-9,3.75-1.67-1-1.68-3.74-2.82-3.76-1.65,0-2.26,5.76-4.94,6.11-1.27.17-1.79-1-2.82-.7-2,.64-1.07,5.27-3.06,6.12-1.55.65-2.94-1.74-4.47-1.18-2,.71-1,5.11-2.83,9.41a14.19,14.19,0,0,1-4.44,5.66c-.78-2-1.67-4.37-2.62-7.07-3.66-10.38-6-16.39-7.06-24.47-1.25-9.57-.91-20.12-2.35-20.24-.82-.07-1.32,3.34-2.12,3.3-1.53-.09-2.48-12.83-2.35-28.94,0-2.92.08-6.14.2-9.64.21-6.1.6-13,1.28-20.73,9.7,18.55,23.2,30.11,24.29,29.31s-9.19-15.16-7.77-16.24,13.37,11.86,20.47,20.12c3.63,4.22,6.82,8.18,9.38,11.29h0c0,2.85,0,6,.15,9.52.15,4,.58,12.53,2.12,23.65C909.56,737.85,909.8,739.38,910,740.69Z" transform="translate(-744.8 -232.24)"/><path class="cls-12" d="M894.48,832.21a9.7,9.7,0,0,0-1.24,3.29h0c0-1-.07-1.92-.11-2.88l-2.88,2.88H813.53a13.41,13.41,0,0,0-3.29-1.65c-2.18-.74-2.91-.35-4-.94-2-1.1-3.28-4.55-2.35-7.53a7.25,7.25,0,0,1,6.59-4.94,11.61,11.61,0,0,1,.57-4.63,8.75,8.75,0,0,1,1.31-2.43c.79-1,2.63-2.9,9.41-4,6.06-1,9.06-.2,15.06-.23a69.28,69.28,0,0,0,13.41-1.42l3.53-1.41a27,27,0,0,1-9.18-3.29c-15.11-8.85-17.73-31.48-20.94-30.82-1.49.3-.84,5.2-2.59,5.64-2.52.65-8.23-8.52-11.06-18.82-3.72-13.58-1.58-26-3-26.12-1-.11-1.87,5.27-3.06,5.18-1.38-.11-2.11-7.49-2.12-13.65,0-9,0-17.91,5.18-26.35,3.6-5.85,8.4-9.34,7.76-10.12-.78-1-7.91,4.26-8.71,3.29-.6-.73,2.52-4.88,6.36-8,7.87-6.39,17.15-7.13,23.06-7.53a60.79,60.79,0,0,1,24,3.31c-.12,3.5-.18,6.72-.2,9.64,0,.31,0,.61,0,.92-.09,15.67.85,27.93,2.35,28,.8,0,1.3-3.37,2.12-3.3,1.44.12,1.1,10.67,2.35,20.24,1.06,8.08,3.4,14.09,7.06,24.47,1,2.7,1.84,5.07,2.62,7.07,1.18,3,2.1,5.21,2.56,6.34,7.3,17.77,4.76,25.48,10.82,44.94C890.09,820.66,891.82,825.87,894.48,832.21Z" transform="translate(-744.8 -232.24)"/><path class="cls-13" d="M934.89,847.5c-4.23,1.29-8.66-2.69-9.18-3.18a14.58,14.58,0,0,1-16.59-.17,9.9,9.9,0,0,1-5.12,2.47,9.68,9.68,0,0,1-9-3.53,9.53,9.53,0,0,1-1.77-7.59h0a9.7,9.7,0,0,1,1.24-3.29c-2.66-6.34-4.39-11.55-5.42-14.83-6.06-19.46-3.52-27.17-10.82-44.94l-.31-.75-.12-.29c-.51-1.23-1.25-3-2.13-5.3a14.19,14.19,0,0,0,4.44-5.66c1.81-4.3.87-8.7,2.83-9.41,1.53-.56,2.92,1.83,4.47,1.18,2-.85,1.11-5.48,3.06-6.12,1-.34,1.55.87,2.82.7,2.68-.35,3.29-6.15,4.94-6.11,1.14,0,1.15,2.81,2.82,3.76,1.38.78,3.94.34,9-3.75.06.36.12.7.17,1s.09.54.14.79a1.55,1.55,0,0,0,0,.21q.12.72.24,1.35c.21,1.11.4,2.09.58,3.12,0,.14.06.29.08.43.11.6.22,1.23.32,1.92,0,.31.09.63.14,1,.13.91.26,1.93.4,3.12a165.28,165.28,0,0,1,1.06,19.76c.08,9,1.44,22.85,7.24,43.24a7.84,7.84,0,0,1,4.23,2.29,7.94,7.94,0,0,1,2.12,4.41c5.77.42,10.74,3.66,12.71,8.47a13.81,13.81,0,0,1,.91,3.71C941,840.65,939,846.25,934.89,847.5Z" transform="translate(-744.8 -232.24)"/><path class="cls-14" d="M965.12,569.73c-4-4.36-10.31-4.26-12.3-4.11l-.58.06a16.42,16.42,0,0,0-7,2.64,16.42,16.42,0,0,0-7-2.64l-.58-.06c-2-.15-8.3-.25-12.3,4.11s-4.45,11.63-.85,17.89c10.24,5.2,17.64,9.56,20.73,11.41,3.09-1.85,10.49-6.21,20.73-11.41C969.57,581.36,969.07,574,965.12,569.73Z" transform="translate(-744.8 -232.24)"/><path class="cls-15" d="M945.24,568.32a16.42,16.42,0,0,1,7-2.64l.58-.06c2-.15,8.3-.25,12.3,4.11s4.45,11.63.85,17.89A317.8,317.8,0,0,1,1013.26,568a209.79,209.79,0,0,1,23.14-6c1.47-.3,2.95-.57,4.43-.82,13.79-2.33,24.24-4.09,38.82-3.53,18.49.73,33.15,4.8,34.24,1.77,1.23-3.44-16.79-11.06-15.53-15.18,1.76-5.78,39.44,2.37,40.94-2.82,1.26-4.36-24.32-13.59-22.94-19.41s28.44-2.28,29.29-8.12c1-7.05-26.46-13.75-25.76-23.65.61-8.69,22.49-13.31,21.53-17.29-.55-2.26-7.73-1.27-15.18-3.14a21.75,21.75,0,0,1-10.59-5.68,20.59,20.59,0,0,1-4.59-7.53l-.74-.76-.43-.43c-.57-.57-1.22-1.2-2-1.87l-.75-.69c-1-.93-2.21-1.93-3.52-3-.33-.27-.68-.54-1-.81s-.87-.66-1.33-1-.84-.61-1.28-.92c-.7-.48-1.42-1-2.17-1.46l-1.14-.73-1.18-.72c-.42-.26-.86-.52-1.3-.77l-1.18-.67-1.22-.66c-.83-.43-1.68-.86-2.55-1.28l-1.33-.62c-.44-.21-.9-.41-1.36-.6l-1.33-.56-.21-.08-.64-.26-.65-.25q-1-.39-2.07-.75l-1.3-.44-.9-.28-.23-.07c-.37-.12-.74-.23-1.12-.33l-.67-.2-.2-.05-.35-.1-1-.26-.23-.06-1.26-.3-1.43-.32-2-.38c-30.35-5.5-53.22,10.59-57.41,13.65,12.57-14.72,15.37-19.45,14.59-20.24-1.09-1.1-9.9,4.86-17.06,12.12-15.91,16.15-19.94,34.91-22.23,34.23s1.73-18.26,0-18.7c-1.46-.38-6.31,11.51-9.89,23.64-4.36,14.82-5.18,24.43-6.7,24.36-2.32-.11-2.25-22.51-4.24-22.59-1.67-.07-3.62,15.71-5.29,28.23C960.89,524.3,956.42,544.44,945.24,568.32Z" transform="translate(-744.8 -232.24)"/><path class="cls-6" d="M1115.2,417s0,0,0,0" transform="translate(-744.8 -232.24)"/><path class="cls-16" d="M1111.06,456.68a75.38,75.38,0,0,0-16.83-13.13A90.81,90.81,0,0,0,1075.3,440c-4.66-.38-31.92-2.19-57.41,14.35C999.27,466.41,990.24,484,973,518.79a456.07,456.07,0,0,0-20.13,46.83l-.58.06a16.42,16.42,0,0,0-7,2.64,16.51,16.51,0,0,0-6.57-2.58l-.43-.06-.58-.06a456.07,456.07,0,0,0-20.13-46.83c-17.29-34.76-26.32-52.38-44.94-64.47-25.49-16.54-52.75-14.73-57.41-14.35a90.81,90.81,0,0,0-18.93,3.58,75.38,75.38,0,0,0-16.83,13.13c0-.88-.08-2.2-.08-3.92h0c-.12-16.79,2.91-71.27,47.61-114.19,48.59-46.67,108.78-43.49,118.29-42.83,9.51-.66,69.7-3.84,118.29,42.83C1112.83,385.9,1111.44,447.3,1111.06,456.68Z" transform="translate(-744.8 -232.24)"/><path class="cls-17" d="M1013.26,568a209.79,209.79,0,0,1,23.14-6c1.47-.3,2.95-.57,4.43-.82,13.79-2.33,24.24-4.09,38.82-3.53,18.49.73,33.15,4.8,34.24,1.77,1.23-3.44-16.79-11.06-15.53-15.18,1.76-5.78,39.44,2.37,40.94-2.82,1.26-4.36-24.32-13.59-22.94-19.41s28.44-2.28,29.29-8.12c1-7.05-26.46-13.75-25.76-23.65.61-8.69,22.49-13.31,21.53-17.29-.55-2.26-7.73-1.27-15.18-3.14-9.83,5-17.79,10.94-17.53,17.37.42,10.17,21.1,15.6,19.77,22.12-1.47,7.17-27.6,6-28.24,11.53-.54,4.71,17.61,9.49,16.94,12.71-.83,4-29.9-1-32,5.41-1.38,4.23,9.91,10.1,8.47,13.65-1.61,4-17.59,1-20.47.47C1060.14,550.89,1041.12,552.66,1013.26,568Z" transform="translate(-744.8 -232.24)"/><path class="cls-18" d="M1028.38,509c-8.72,0-16.2-8.26-17.77-19.65a30.19,30.19,0,0,1-.31-4.4c0-13.26,8.11-24.06,18.08-24.06s18.08,10.8,18.08,24.06a30.83,30.83,0,0,1-.69,6.57C1043.59,501.77,1036.44,509,1028.38,509Z" transform="translate(-744.8 -232.24)"/><path class="cls-9" d="M1011.3,484.91a29.67,29.67,0,0,0,.3,4.26c1.48,10.7,8.43,18.79,16.78,18.79,7.79,0,14.37-7,16.41-16.69a29.88,29.88,0,0,0,.67-6.36c0-12.74-7.65-23.06-17.08-23.06S1011.3,472.17,1011.3,484.91Z" transform="translate(-744.8 -232.24)"/><path class="cls-19" d="M1011.3,484.91a29.67,29.67,0,0,0,.3,4.26c2.17,5.38,6.18,9.9,11.4,11.39,7,2,15.91-1.52,21.79-9.29a29.88,29.88,0,0,0,.67-6.36c0-12.74-7.65-23.06-17.08-23.06S1011.3,472.17,1011.3,484.91Z" transform="translate(-744.8 -232.24)"/><path class="cls-9" d="M1036.73,470.32c-.27-4-5-7-9-5.94-3.22.83-5.91,4.19-5.29,7.65.69,3.9,5.26,6.08,8.94,5.12C1034.36,476.37,1037,473.48,1036.73,470.32Z" transform="translate(-744.8 -232.24)"/><path class="cls-20" d="M945.65,694.32C899.13,668.1,870,628.38,874,590.56a68.21,68.21,0,0,1,6-21.61,321.68,321.68,0,0,1,44.46,18.67c10.24,5.2,17.64,9.56,20.73,11.41,3.09-1.85,10.49-6.21,20.73-11.41a323.19,323.19,0,0,1,43.12-18.22,70.54,70.54,0,0,1,4.68,18C1020.86,645.72,950.4,691.34,945.65,694.32Z" transform="translate(-744.8 -232.24)"/><line class="cls-6" x1="291.6" y1="329.83" x2="291.6" y2="329.84"/><path class="cls-21" d="M1029,717.62c-.8,0-1.3-3.37-2.12-3.3-1.44.12-1.1,10.67-2.35,20.24-1.06,8.08-3.4,14.09-7.06,24.47-.95,2.7-1.84,5.07-2.62,7.07a14.19,14.19,0,0,1-4.44-5.66c-1.81-4.3-.87-8.7-2.83-9.41-1.53-.56-2.92,1.83-4.47,1.18-2-.85-1.11-5.48-3.06-6.12-1-.34-1.55.87-2.82.7-2.68-.35-3.29-6.15-4.94-6.11-1.14,0-1.15,2.81-2.82,3.76-1.38.78-3.94.34-8.95-3.75.21-1.31.45-2.84.71-4.72,1.54-11.12,2-19.67,2.12-23.65.13-3.48.17-6.67.15-9.52h0c2.56-3.11,5.75-7.07,9.38-11.29,7.1-8.26,19-21.19,20.47-20.12s-8.86,15.43-7.77,16.24,14.59-10.76,24.29-29.31c.68,7.68,1.07,14.63,1.28,20.73.12,3.5.18,6.72.2,9.64C1031.43,704.79,1030.48,717.53,1029,717.62Z" transform="translate(-744.8 -232.24)"/><path class="cls-22" d="M983.45,702.8c-3.37,4.12-5.59,6.71-6.15,6.35-.94-.61,4-8.68,2.82-9.53-1.39-1-10.68,8.4-16.94,16.94-6.53,8.91-14.92,23.91-17.94,47.29-3-23.38-11.41-38.38-17.94-47.29-6.26-8.54-15.55-17.95-16.94-16.94-1.18.85,3.76,8.92,2.82,9.53-.56.36-2.78-2.23-6.15-6.35,0,2.85,0,6,.15,9.52.15,4,.58,12.53,2.12,23.65.26,1.88.5,3.41.71,4.72.86,5.24,1.41,6.83,2.11,12.93a165.28,165.28,0,0,1,1.06,19.76c.08,9,1.44,22.85,7.24,43.24a7.84,7.84,0,0,1,4.23,2.29,7.94,7.94,0,0,1,2.12,4.41c5.77.42,10.74,3.66,12.71,8.47a13.81,13.81,0,0,1,.91,3.71h9.7a13.81,13.81,0,0,1,.91-3.71c2-4.81,6.94-8,12.71-8.47a7.94,7.94,0,0,1,2.12-4.41,7.84,7.84,0,0,1,4.23-2.29c5.8-20.39,7.16-34.19,7.24-43.24a165.28,165.28,0,0,1,1.06-19.76c.7-6.1,1.25-7.69,2.11-12.93.21-1.31.45-2.84.71-4.72,1.54-11.12,2-19.67,2.12-23.65C983.43,708.84,983.47,705.65,983.45,702.8Z" transform="translate(-744.8 -232.24)"/><path class="cls-23" d="M1045.89,803a27,27,0,0,1-9.18,3.29l3.53,1.41a69.28,69.28,0,0,0,13.41,1.42c6,0,9-.75,15.06.23,6.78,1.1,8.62,3,9.41,4a8.85,8.85,0,0,1,1.61,3.47,12.23,12.23,0,0,1,.27,3.59,7.25,7.25,0,0,1,6.59,4.94c.93,3-.3,6.43-2.35,7.53-1.09.59-1.82.2-4,.94a13.41,13.41,0,0,0-3.29,1.65h-76.71l-2.88-2.88c0,1-.08,1.92-.11,2.88h0a9.7,9.7,0,0,0-1.24-3.29c2.66-6.34,4.39-11.55,5.42-14.83,6.06-19.46,3.52-27.17,10.82-44.94.46-1.13,1.38-3.3,2.56-6.34.78-2,1.67-4.37,2.62-7.07,3.66-10.38,6-16.39,7.06-24.47,1.25-9.57.91-20.12,2.35-20.24.82-.07,1.32,3.34,2.12,3.3,1.52-.09,2.47-12.68,2.35-28.66v-.28c0-2.92-.08-6.14-.2-9.64a60.79,60.79,0,0,1,24-3.31c5.91.4,15.19,1.14,23.06,7.53,3.84,3.12,7,7.27,6.36,8-.8,1-7.93-4.24-8.71-3.29-.64.78,4.16,4.27,7.76,10.12,5.21,8.44,5.2,17.34,5.18,26.35,0,6.16-.74,13.54-2.12,13.65-1.19.09-2.08-5.29-3.06-5.18-1.47.16.67,12.54-3,26.12-2.83,10.3-8.54,19.47-11.06,18.82-1.75-.44-1.1-5.34-2.59-5.64C1063.62,771.55,1061,794.18,1045.89,803Z" transform="translate(-744.8 -232.24)"/><path class="cls-24" d="M1014.8,766.1c-.88,2.28-1.62,4.07-2.13,5.3l-.12.29-.31.75c-7.3,17.77-4.76,25.48-10.82,44.94-1,3.28-2.76,8.49-5.42,14.83a9.7,9.7,0,0,1,1.24,3.29h0a9.53,9.53,0,0,1-1.77,7.59,9.68,9.68,0,0,1-9,3.53,9.9,9.9,0,0,1-5.12-2.47,14.58,14.58,0,0,1-16.59.17c-.52.49-4.95,4.47-9.18,3.18s-6.07-6.85-5.5-12a13.81,13.81,0,0,1,.91-3.71c2-4.81,6.94-8,12.71-8.47a7.94,7.94,0,0,1,2.12-4.41,7.84,7.84,0,0,1,4.23-2.29c5.8-20.39,7.16-34.19,7.24-43.24a165.28,165.28,0,0,1,1.06-19.76c.14-1.19.27-2.21.4-3.12,0-.34.09-.66.14-1,.1-.69.21-1.32.32-1.92,0-.14,0-.29.08-.43.18-1,.37-2,.58-3.12q.12-.63.24-1.35a1.55,1.55,0,0,0,0-.21c.05-.25.09-.51.14-.79s.11-.66.17-1c5,4.09,7.57,4.53,8.95,3.75,1.67-1,1.68-3.74,2.82-3.76,1.65,0,2.26,5.76,4.94,6.11,1.27.17,1.79-1,2.82-.7,2,.64,1.07,5.27,3.06,6.12,1.55.65,2.94-1.74,4.47-1.18,2,.71,1,5.11,2.83,9.41A14.19,14.19,0,0,0,1014.8,766.1Z" transform="translate(-744.8 -232.24)"/><path class="cls-25" d="M1043.3,644.91c-.94-.07.3-14.5-1.77-14.82-1.8-.28-3.68,10.52-8.82,22.23q-1.37,3.1-2.89,6c-9.7,18.55-23.2,30.11-24.29,29.31s9.19-15.16,7.77-16.24-13.37,11.86-20.47,20.12c-3.63,4.22-6.82,8.18-9.38,11.29h0c-3.37,4.12-5.59,6.71-6.15,6.35-.94-.61,4-8.68,2.82-9.53-1.39-1-10.68,8.4-16.94,16.94-6.53,8.91-14.92,23.91-17.94,47.29-3-23.38-11.41-38.38-17.94-47.29-6.26-8.54-15.55-17.95-16.94-16.94-1.18.85,3.76,8.92,2.82,9.53-.56.36-2.78-2.23-6.15-6.35h0c-2.56-3.11-5.75-7.07-9.38-11.29-7.1-8.26-19-21.19-20.47-20.12S886,686.81,885,687.62s-14.59-10.76-24.29-29.31q-1.53-2.88-2.89-6c-5.14-11.71-7-22.51-8.82-22.23-2.07.32-.83,14.75-1.77,14.82s-5.2-18.7-3.88-40.59a112.35,112.35,0,0,1,5.29-28.94,103.28,103.28,0,0,1,5.49-13.3,209.79,209.79,0,0,1,23.14,6l2.83.91a68.21,68.21,0,0,0-6,21.61c-4,37.82,25.13,77.54,71.65,103.76,4.75-3,75.21-48.6,68.12-106.94a70.54,70.54,0,0,0-4.68-18c1.38-.47,2.77-.92,4.17-1.36a209.79,209.79,0,0,1,23.14-6,103.28,103.28,0,0,1,5.49,13.3,112.35,112.35,0,0,1,5.29,28.94C1048.5,626.21,1044.38,645,1043.3,644.91Z" transform="translate(-744.8 -232.24)"/><path class="cls-26" d="M865.89,804.79c-8.56,7.06-15.88,9-20.83,9.53-9.6,1-14.55-2.79-24.35-1.41a34.32,34.32,0,0,0-9.66,2.9,8.75,8.75,0,0,1,1.31-2.43c.79-1,2.63-2.9,9.41-4,6.06-1,9.06-.2,15.06-.23a69.28,69.28,0,0,0,13.41-1.42l3.53-1.41a27,27,0,0,1-9.18-3.29c-15.11-8.85-17.73-31.48-20.94-30.82-1.49.3-.84,5.2-2.59,5.64-2.52.65-8.23-8.52-11.06-18.82-3.72-13.58-1.58-26-3-26.12-1-.11-1.87,5.27-3.06,5.18-1.38-.11-2.11-7.49-2.12-13.65,0-9,0-17.91,5.18-26.35,3.6-5.85,8.4-9.34,7.76-10.12-.78-1-7.91,4.26-8.71,3.29-.6-.73,2.52-4.88,6.36-8,7.87-6.39,17.15-7.13,23.06-7.53a60.79,60.79,0,0,1,24,3.31c-.12,3.5-.18,6.72-.2,9.64,0,.31,0,.61,0,.92-4.1-1.64-9.89-2.94-15.88-.92-9.43,3.17-13.18,12.51-15.53,18.35-4.9,12.17-3.43,22.85-1.41,36.35,2.62,17.54,4.68,31.25,15.53,44.12A62.43,62.43,0,0,0,865.89,804.79Z" transform="translate(-744.8 -232.24)"/><path class="cls-26" d="M1088.71,724.44c0,6.16-.74,13.54-2.12,13.65-1.19.09-2.08-5.29-3.06-5.18-1.47.16.67,12.54-3,26.12-2.83,10.3-8.54,19.47-11.06,18.82-1.75-.44-1.1-5.34-2.59-5.64-3.21-.66-5.83,22-20.94,30.82a27,27,0,0,1-9.18,3.29l3.53,1.41a69.28,69.28,0,0,0,13.41,1.42c6,0,9-.75,15.06.23,6.78,1.1,8.62,3,9.41,4a8.85,8.85,0,0,1,1.61,3.47,34.79,34.79,0,0,0-11.71-3.94c-9.8-1.38-14.75,2.45-24.35,1.41-5-.53-12.27-2.47-20.83-9.53a62.51,62.51,0,0,0,24-17.29c10.85-12.87,12.9-26.58,15.53-44.12,2-13.5,3.48-24.18-1.41-36.35-2.35-5.84-6.1-15.18-15.53-18.35a22.29,22.29,0,0,0-14.13.28v-.28c0-2.92-.08-6.14-.2-9.64a60.79,60.79,0,0,1,24-3.31c5.91.4,15.19,1.14,23.06,7.53,3.84,3.12,7,7.27,6.36,8-.8,1-7.93-4.24-8.71-3.29-.64.78,4.16,4.27,7.76,10.12C1088.74,706.53,1088.73,715.43,1088.71,724.44Z" transform="translate(-744.8 -232.24)"/><path class="cls-27" d="M1100.85,388.09v24.2H789.63v-24.2c0-33.47,12.66-64.24,33.86-88.54a152,152,0,0,1,37.44-31,162.82,162.82,0,0,1,48.23-18.81,171,171,0,0,1,72.16,0,162.82,162.82,0,0,1,48.23,18.81C1072.45,293.89,1100.85,338,1100.85,388.09Z" transform="translate(-744.8 -232.24)"/><path class="cls-28" d="M1116.74,422.09c0,5.4-4.8,9.79-10.72,9.79H784.45c-5.91,0-10.71-4.39-10.71-9.79a9.15,9.15,0,0,1,1.54-5.07,11,11,0,0,1,9.17-4.73H1106C1111.94,412.29,1116.74,416.68,1116.74,422.09Z" transform="translate(-744.8 -232.24)"/><path class="cls-29" d="M1029.55,260.74a168.63,168.63,0,0,0-168.62,0V412.29h168.62Z" transform="translate(-744.8 -232.24)"/><path class="cls-27" d="M981.32,235.89a180.15,180.15,0,0,0-72.16,0v176.4h72.16Z" transform="translate(-744.8 -232.24)"/><path class="cls-30" d="M938.67,565.74l-.43-.06-.58-.06a456.07,456.07,0,0,0-20.13-46.83c-17.29-34.76-26.32-52.38-44.94-64.47-25.49-16.54-52.75-14.73-57.41-14.35a90.81,90.81,0,0,0-18.93,3.58,75.38,75.38,0,0,0-16.83,13.13c0-.88-.08-2.2-.08-3.92h0a45.11,45.11,0,0,1,7.84-8c11.62-9.13,24.61-9.73,34.41-10.06,7.31-.24,33.6-1.1,54.71,16.06,14.72,12,22,28.71,24.53,27.36,1.78-.95-1.48-9.43-.35-9.89,1.4-.57,8.48,12,15.41,27.47A359.93,359.93,0,0,1,938.67,565.74Z" transform="translate(-744.8 -232.24)"/><path class="cls-31" d="M951.78,565.74l.43-.06.58-.06a456.07,456.07,0,0,1,20.13-46.83c17.29-34.76,26.32-52.38,44.94-64.47,25.49-16.54,52.75-14.73,57.41-14.35a90.81,90.81,0,0,1,18.93,3.58A75.38,75.38,0,0,1,1111,456.68c0-.88.08-2.2.08-3.92h0a45.11,45.11,0,0,0-7.84-8c-11.62-9.13-24.61-9.73-34.41-10.06-7.31-.24-33.6-1.1-54.71,16.06-14.72,12-22,28.71-24.53,27.36-1.78-.95,1.48-9.43.35-9.89-1.4-.57-8.48,12-15.41,27.47A359.93,359.93,0,0,0,951.78,565.74Z" transform="translate(-744.8 -232.24)"/><path class="cls-32" d="M956.29,395.16a2,2,0,0,1-1.82-1.19l-22-49-10.3,0a2.05,2.05,0,0,1-1.43-.59,2,2,0,0,1-.61-1.41V329.1a2,2,0,0,1,2-2h22.63a2,2,0,0,1,1.82,1.18l22.26,49.09H973a2,2,0,0,1,2,2v13.79a2,2,0,0,1-2,2Z" transform="translate(-744.8 -232.24)"/><path d="M922.16,343V329.1h22.63l22.79,50.27H973v13.79H956.29L933.8,343Z" transform="translate(-744.8 -232.24)"/><path class="cls-32" d="M913.27,395.16a2,2,0,0,1-1.7-1,2,2,0,0,1-.08-1.95l19.88-39.18a2,2,0,0,1,1.79-1.09h.06a2,2,0,0,1,1.77,1.2l7.38,16.93a2,2,0,0,1,0,1.62l-10,22.25a2,2,0,0,1-1.82,1.18Z" transform="translate(-744.8 -232.24)"/><polygon points="185.7 160.91 168.47 160.91 188.35 121.73 195.74 138.66 185.7 160.91"/></svg>